<?xml version="1.0" encoding="utf-8"?>
<!-- Generator: Adobe Illustrator 26.0.1, SVG Export Plug-In . SVG Version: 6.00 Build 0)  -->
<svg version="1.1" id="katman_1" xmlns="http://www.w3.org/2000/svg" xmlns:xlink="http://www.w3.org/1999/xlink" x="0px" y="0px"
	 viewBox="0 0 231 393.1" style="enable-background:new 0 0 231 393.1;" xml:space="preserve">
<style type="text/css">
	.st0{fill:#FFFFFF;}
</style>
<g>
	<path class="st0" d="M200.6,0c11.5,3.9,18.5,13.3,26,21.9c6.1,7,5.5,18.3-0.3,25.6c-1.4,1.7-2.9,3.2-4.4,4.8
		C174.9,99.2,128,146.1,81,193c-1.1,1.1-2.5,1.8-3.9,2.9c1.7,1.8,2.8,2.9,3.8,4c47.3,47.3,94.6,94.6,141.8,141.9
		c8.4,8.4,11,18.8,4.7,27.3c-5.8,7.8-13,14.8-20.7,20.7c-7.2,5.6-17,3.9-24.2-2c-1.1-0.9-2.1-1.8-3.1-2.8
		C122.3,327.8,65.2,270.7,8.1,213.5C-0.5,205-2.4,195,3,185.7c1.3-2.3,3.2-4.3,5.1-6.2C65.2,122.4,122.3,65.2,179.6,8.2
		c3.5-3.5,8.4-5.5,12.6-8.2C195,0,197.8,0,200.6,0z"/>
</g>
</svg>
