<?xml version="1.0" encoding="utf-8"?>
<!-- Generator: Adobe Illustrator 26.0.1, SVG Export Plug-In . SVG Version: 6.00 Build 0)  -->
<svg version="1.1" id="katman_1" xmlns="http://www.w3.org/2000/svg" xmlns:xlink="http://www.w3.org/1999/xlink" x="0px" y="0px"
	 viewBox="0 0 231 393.1" style="enable-background:new 0 0 231 393.1;" xml:space="preserve">
<style type="text/css">
	.st0{fill:#FFFFFF;}
</style>
<g>
	<path class="st0" d="M30.4,393.1c-11.5-3.9-18.5-13.3-26-21.9c-6.1-7-5.5-18.3,0.3-25.6c1.4-1.7,2.9-3.2,4.4-4.8
		C56.1,294,103,247,150,200.1c1.1-1.1,2.5-1.8,3.9-2.9c-1.7-1.8-2.8-2.9-3.8-4C102.8,146,55.5,98.7,8.2,51.4
		c-8.4-8.4-11-18.8-4.7-27.3c5.8-7.8,13-14.8,20.7-20.7c7.2-5.6,17-3.9,24.2,2c1.1,0.9,2.1,1.8,3.1,2.8
		c57.1,57.1,114.3,114.3,171.4,171.4c8.6,8.6,10.4,18.5,5,27.8c-1.3,2.3-3.2,4.3-5.1,6.2C165.8,270.8,108.7,328,51.4,385
		c-3.5,3.5-8.4,5.5-12.6,8.2C36,393.1,33.2,393.1,30.4,393.1z"/>
</g>
</svg>
