<svg width="15" height="15" viewBox="0 0 15 15" fill="none" xmlns="http://www.w3.org/2000/svg">
<path id="Vector" d="M8.05738 7.5L14.8846 0.672758C15.0385 0.518867 15.0385 0.26936 14.8846 0.115468C14.7307 -0.0384237 14.4812 -0.0384237 14.3273 0.115468L7.50004 6.94266L0.672795 0.115419C0.518904 -0.0384729 0.269397 -0.0384729 0.115505 0.115419C-0.038436 0.26931 -0.038436 0.518818 0.115505 0.672709L6.9427 7.5L0.115456 14.3272C-0.0384852 14.4812 -0.0384852 14.7306 0.115456 14.8846C0.192401 14.9615 0.293239 15 0.394125 15C0.495012 15 0.59585 14.9615 0.672795 14.8846L7.50004 8.05734L14.3273 14.8846C14.4043 14.9615 14.5051 15 14.6059 15C14.7068 15 14.8077 14.9615 14.8846 14.8846C15.0385 14.7306 15.0385 14.4812 14.8846 14.3272L8.05738 7.5Z" fill="white"/>
</svg>
