<?xml version="1.0" encoding="utf-8"?>
<!-- Generator: Adobe Illustrator 24.1.1, SVG Export Plug-In . SVG Version: 6.00 Build 0)  -->
<svg version="1.1" id="Layer_1" xmlns="http://www.w3.org/2000/svg" xmlns:xlink="http://www.w3.org/1999/xlink" x="0px" y="0px"
	 viewBox="0 0 512 512" style="enable-background:new 0 0 512 512;" xml:space="preserve">
<style type="text/css">
	.st0{fill:#FF3D00;}
</style>
<g>
	<path class="st0" d="M393.4,511.5C176.3,511.2,0.3,335.2,0,118C0,53.1,52.6,0.5,117.5,0.5c6.6,0,13.2,0.5,19.7,1.8
		c6.3,0.9,12.4,2.5,18.4,4.6c8.5,3,14.9,10.3,16.6,19.2l35,153.3c1.9,8.5-0.6,17.3-6.6,23.5c-3.3,3.6-3.6,3.8-35,20.2
		c25.2,55.2,69.3,99.6,124.4,124.9c16.6-31.7,16.9-31.9,20.4-35.3c6.2-6.1,15-8.6,23.5-6.6l153.3,35c8.6,2,15.5,8.3,18.4,16.6
		c2.1,6.1,3.8,12.3,4.9,18.7c1,6.4,1.5,12.9,1.5,19.4C511,460.4,458.1,512.1,393.4,511.5z"/>
</g>
</svg>
