<svg xmlns="http://www.w3.org/2000/svg" width="30" height="30" fill="none" viewBox="0 0 22 22">
  <path fill="#FF3D00" fill-rule="evenodd" d="M19.792 5.416c.86.226 1.54.894 1.771 1.737.424 1.536.437 4.722.437 4.722s0 3.198-.424 4.722a2.495 2.495 0 0 1-1.771 1.737c-1.553.416-7.805.416-7.805.416s-6.252 0-7.805-.416a2.495 2.495 0 0 1-1.771-1.737C2 15.06 2 11.875 2 11.875s0-3.186.41-4.71a2.495 2.495 0 0 1 1.772-1.737C5.736 5.013 11.987 5 11.987 5s6.252 0 7.805.416Zm-4.608 6.459-5.186 2.946V8.93l5.186 2.946Z" clip-rule="evenodd"/>
</svg>
