<?xml version="1.0" encoding="UTF-8"?>
<svg xmlns="http://www.w3.org/2000/svg" xmlns:xlink="http://www.w3.org/1999/xlink" width="30px" height="30px" viewBox="0 0 33 33" version="1.1">
<g id="surface1">
<path style=" stroke:none;fill-rule:nonzero;fill:rgb(100%,23.921569%,0%);fill-opacity:1;" d="M 23.050781 29.96875 C 10.328125 29.953125 0.0195312 19.640625 0 6.914062 C 0 3.109375 3.082031 0.03125 6.882812 0.03125 C 7.273438 0.03125 7.65625 0.0585938 8.039062 0.132812 C 8.40625 0.1875 8.765625 0.28125 9.117188 0.402344 C 9.617188 0.578125 9.992188 1.007812 10.089844 1.527344 L 12.140625 10.511719 C 12.25 11.007812 12.105469 11.527344 11.753906 11.890625 C 11.558594 12.101562 11.542969 12.113281 9.703125 13.070312 C 11.179688 16.304688 13.761719 18.90625 16.992188 20.390625 C 17.964844 18.53125 17.984375 18.523438 18.1875 18.320312 C 18.550781 17.964844 19.066406 17.816406 19.5625 17.933594 L 28.546875 19.984375 C 29.050781 20.101562 29.453125 20.472656 29.625 20.960938 C 29.75 21.316406 29.847656 21.679688 29.910156 22.054688 C 29.96875 22.429688 30 22.808594 30 23.191406 C 29.941406 26.976562 26.84375 30.007812 23.050781 29.96875 Z M 23.050781 29.96875 "/>
</g>
</svg>
