<svg width="32" height="30" viewBox="0 0 32 30" fill="none" xmlns="http://www.w3.org/2000/svg">
<path id="Vector" d="M31.3869 29.999V18.3937C31.3869 12.1752 28.0677 9.2817 23.6422 9.2817C20.0709 9.2817 18.4702 11.2463 17.5786 12.6254V9.75741H10.8501C10.9393 11.6573 10.8501 29.999 10.8501 29.999H17.5786V18.6948C17.5786 18.0916 17.6218 17.4864 17.8003 17.0549C18.2858 15.8455 19.3932 14.5939 21.2509 14.5939C23.6863 14.5939 24.6593 16.4497 24.6593 19.1705V30L31.3869 29.999ZM3.76153 6.99438C6.10672 6.99438 7.56915 5.43876 7.56915 3.49572C7.52599 1.5105 6.1077 0 3.80664 0C1.50559 0 0 1.50951 0 3.49572C0 5.43876 1.46047 6.99438 3.71935 6.99438H3.76153ZM7.12581 29.999V9.75741H0.398221V29.999H7.12581Z" fill="#FF3D00"/>
</svg>
