<svg width="39" height="17" viewBox="0 0 39 17" fill="none" xmlns="http://www.w3.org/2000/svg">
<g id="logo" clip-path="url(#clip0_270_281)">
<g id="Group 383">
<path id="Vector" d="M13.3811 7.31829C13.2108 6.27124 12.3734 5.41064 10.8975 5.41064C10.2163 5.41064 9.71954 5.55408 9.27959 5.85528L8.51323 6.888C8.20101 6.04175 7.42045 5.41064 6.15737 5.41064C5.46197 5.41064 4.97944 5.55408 4.5253 5.85528L3.95762 6.80194V5.61145H1.72949V13.2564H3.95762V9.28331C3.95762 7.7199 4.36919 6.95971 5.2207 6.95971C5.94449 6.95971 6.32767 7.39001 6.42702 8.1502C6.46959 8.53747 6.48378 8.95342 6.48378 9.312V13.2564H8.69772V9.28331C8.69772 7.7199 9.12348 6.95971 9.975 6.95971C10.6846 6.95971 11.082 7.39001 11.1671 8.1502C11.2097 8.53747 11.2239 8.95342 11.2239 9.312V13.2564H13.452V8.73827C13.452 8.12151 13.4378 7.70556 13.3811 7.31829Z" fill="#C4C4C4"/>
<path id="Vector_2" d="M17.8583 10.3306L20.0581 13.2566H22.8255L19.5046 9.14012L22.7829 5.61169H20.1432L17.2765 8.968V2.71436H15.0483V13.2566H17.2765V10.9761L17.8583 10.3306ZM30.4186 9.29789C30.4186 7.26116 29.1697 5.41088 26.7571 5.41088C24.3587 5.41088 22.8401 7.16075 22.8401 9.45567C22.8401 12.1522 24.5006 13.4574 26.6152 13.4574C28.4601 13.4574 29.8793 12.5251 30.2909 10.7609H28.0911C27.9634 11.4781 27.4383 11.9084 26.6577 11.9084C25.8204 11.9084 25.196 11.4781 25.0682 10.0151H30.376C30.4044 9.74253 30.4186 9.4987 30.4186 9.29789ZM26.6577 6.95995C27.4809 6.95995 27.9776 7.51933 28.1053 8.59508H25.125C25.3095 7.46196 25.863 6.95995 26.6577 6.95995ZM38.8409 5.61169H36.414L34.6968 11.5211L32.9654 5.61169H30.4818L33.5898 13.6009L33.4905 13.8447C33.2067 14.5045 32.7809 14.734 32.1423 14.734C31.9152 14.734 31.7165 14.734 31.5178 14.7053V16.2113C31.83 16.2544 32.0997 16.2687 32.4829 16.2687C34.1291 16.2687 34.9523 15.6376 35.818 13.4144L38.8409 5.61169Z" fill="#C4C4C4"/>
<path id="Vector_3" d="M28.3876 2.40659C28.3167 1.97032 27.9973 1.63565 27.4356 1.63565C27.1577 1.63565 26.933 1.68943 26.7733 1.82091L26.4954 2.2273C26.3771 1.88068 26.0696 1.63565 25.5906 1.63565C25.3127 1.63565 25.088 1.68943 24.9283 1.82091L24.7273 2.17949V1.71932H24.2188V4.88678H24.7273V3.32098C24.7273 2.35878 25.017 2.04204 25.4132 2.04204C25.768 2.04204 25.9927 2.21535 26.04 2.57393C26.0578 2.73529 26.0637 2.90861 26.0637 3.1895V4.88678H26.5722V3.32098C26.5722 2.35878 26.862 2.04204 27.2582 2.04204C27.613 2.04204 27.8377 2.21535 27.885 2.57393C27.9027 2.73529 27.9086 2.90861 27.9086 3.1895V4.88678H28.4172V2.95044C28.4172 2.69346 28.4113 2.56796 28.3876 2.40659ZM31.6132 3.2134C31.6132 2.28707 31.1342 1.63565 30.2708 1.63565C29.4134 1.63565 28.7807 2.28707 28.7807 3.315C28.7807 4.43257 29.3898 4.97045 30.2058 4.97045C30.8503 4.97045 31.4476 4.62979 31.5718 3.86482H31.0396C30.9686 4.31902 30.6375 4.57601 30.2294 4.57601C29.7682 4.57601 29.3779 4.29512 29.3306 3.45843H31.6013C31.6132 3.34488 31.6132 3.26121 31.6132 3.2134ZM30.259 2.03008C30.7735 2.03008 31.0514 2.40659 31.0987 3.06399H29.3365C29.3957 2.38867 29.7623 2.03008 30.259 2.03008ZM34.7876 0.494141H34.279V2.15559L34.0721 1.84482C33.9124 1.71334 33.5813 1.63565 33.3211 1.63565C32.511 1.63565 31.7895 2.17949 31.7895 3.35086C31.7895 4.27719 32.2981 4.97045 33.2147 4.97045C33.534 4.97045 33.8651 4.86885 34.0425 4.71944L34.279 4.37879V4.88678H34.7876V0.494141ZM33.2915 4.57601C32.6647 4.57601 32.3454 4.00825 32.3454 3.29109C32.3454 2.46038 32.7712 2.03008 33.3211 2.03008C33.7705 2.03008 34.279 2.34085 34.279 3.15961V3.33293C34.279 4.24133 33.8119 4.57601 33.2915 4.57601ZM35.7055 0.679408C35.5222 0.679408 35.3803 0.82284 35.3803 1.00811C35.3803 1.19337 35.5222 1.33683 35.7055 1.33683C35.8888 1.33683 36.0307 1.19337 36.0307 1.00811C36.0307 0.82284 35.8888 0.679408 35.7055 0.679408ZM35.9598 4.88678V1.71932H35.4512V4.88678H35.9598ZM38.4214 4.88678H38.9299C38.8826 4.53417 38.8708 4.31902 38.8708 4.07997V2.89068C38.8708 2.75322 38.8649 2.59784 38.853 2.47233C38.7998 1.95239 38.4864 1.63565 37.7413 1.63565C37.0495 1.63565 36.5823 2.02411 36.535 2.69944H37.0672C37.1027 2.26316 37.3156 2.03008 37.7413 2.03008C38.1612 2.03008 38.3268 2.22133 38.3504 2.51417C38.3622 2.6337 38.3622 2.7592 38.3622 2.89665V2.98032H38.1612C36.9312 2.98032 36.399 3.35086 36.399 4.06802C36.399 4.6537 36.8425 4.97045 37.4102 4.97045C37.7118 4.97045 37.9838 4.92263 38.1967 4.77323L38.3681 4.43257L38.4214 4.88678ZM37.5817 4.57601C37.1973 4.57601 36.9549 4.40867 36.9549 4.02618C36.9549 3.48234 37.4989 3.29707 38.3622 3.36281V3.68553C38.3622 4.25926 38.0547 4.57601 37.5817 4.57601Z" fill="#C4C4C4"/>
</g>
</g>
<defs>
<clipPath id="clip0_270_281">
<rect width="39" height="16" fill="white" transform="translate(0 0.5)"/>
</clipPath>
</defs>
</svg>
